<svg width="16" height="16" viewBox="0 0 16 16" fill="none" xmlns="http://www.w3.org/2000/svg">
<path d="M12 3.73995V4.15995C10.93 2.94995 9.37002 2.19995 7.67002 2.19995C4.95002 2.19995 2.62002 4.04995 2.02002 6.70995L3.97002 7.14995C4.36002 5.43995 5.91002 4.19995 7.67002 4.19995C8.98002 4.19995 10.16 4.86995 10.85 5.92995H9.80002V7.92995H14V3.73995H12Z" fill="#555555"/>
<path d="M8.33 11.7899C7.02 11.7899 5.84 11.1199 5.15 10.0599H6.2V8.05994H2V12.2599H4V11.8399C5.07 13.0499 6.63 13.7999 8.33 13.7999C11.05 13.7999 13.38 11.9499 13.98 9.28994L12.03 8.84994C11.64 10.5599 10.09 11.7999 8.33 11.7999V11.7899Z" fill="#555555"/>
</svg>
