<svg width="16" height="16" viewBox="0 0 16 16" fill="none" xmlns="http://www.w3.org/2000/svg">
<path d="M2.45313 7.55555H1.70313V7.55556L2.45313 7.55555ZM2.45313 8.66667L1.92488 9.19908C2.21729 9.4892 2.68896 9.4892 2.98137 9.19908L2.45313 8.66667ZM4.10124 8.08797C4.39528 7.79622 4.39715 7.32135 4.10541 7.02731C3.81367 6.73327 3.3388 6.73141 3.04476 7.02315L4.10124 8.08797ZM1.86149 7.02315C1.56745 6.73141 1.09258 6.73327 0.800843 7.02731C0.509102 7.32135 0.510968 7.79622 0.805009 8.08797L1.86149 7.02315ZM12.1973 5.05946C12.4143 5.41232 12.8762 5.52252 13.229 5.30558C13.5819 5.08865 13.6921 4.62674 13.4752 4.27388L12.1973 5.05946ZM8.0525 1.25C4.5514 1.25 1.70313 4.06755 1.70313 7.55555H3.20313C3.20313 4.90706 5.3687 2.75 8.0525 2.75V1.25ZM1.70313 7.55556L1.70313 8.66667L3.20313 8.66667L3.20313 7.55555L1.70313 7.55556ZM2.98137 9.19908L4.10124 8.08797L3.04476 7.02315L1.92488 8.13426L2.98137 9.19908ZM2.98137 8.13426L1.86149 7.02315L0.805009 8.08797L1.92488 9.19908L2.98137 8.13426ZM13.4752 4.27388C12.3603 2.46049 10.3479 1.25 8.0525 1.25V2.75C9.80904 2.75 11.346 3.67466 12.1973 5.05946L13.4752 4.27388Z" fill="white"/>
<path d="M13.5427 7.33331L14.0699 6.7999C13.7777 6.51112 13.3076 6.51112 13.0155 6.7999L13.5427 7.33331ZM11.8913 7.91101C11.5967 8.20219 11.5939 8.67705 11.8851 8.97165C12.1763 9.26625 12.6512 9.26902 12.9458 8.97784L11.8913 7.91101ZM14.1396 8.97784C14.4342 9.26902 14.9091 9.26625 15.2003 8.97165C15.4914 8.67705 15.4887 8.20219 15.1941 7.91101L14.1396 8.97784ZM3.75812 10.9394C3.54059 10.5869 3.07849 10.4775 2.72599 10.6951C2.3735 10.9126 2.26409 11.3747 2.48163 11.7272L3.75812 10.9394ZM7.9219 14.75C11.4321 14.75 14.2927 11.9351 14.2927 8.44442H12.7927C12.7927 11.0902 10.6202 13.25 7.9219 13.25V14.75ZM14.2927 8.44442V7.33331H12.7927V8.44442H14.2927ZM13.0155 6.7999L11.8913 7.91101L12.9458 8.97784L14.0699 7.86673L13.0155 6.7999ZM13.0155 7.86673L14.1396 8.97784L15.1941 7.91101L14.0699 6.7999L13.0155 7.86673ZM2.48163 11.7272C3.60082 13.5407 5.62007 14.75 7.9219 14.75V13.25C6.15627 13.25 4.61261 12.3241 3.75812 10.9394L2.48163 11.7272Z" fill="white"/>
</svg>
