<svg width="48" height="48" viewBox="0 0 48 48" fill="none" xmlns="http://www.w3.org/2000/svg">
<rect width="48" height="48" rx="24" fill="#F5F5F5"/>
<path fill-rule="evenodd" clip-rule="evenodd" d="M30.9058 15.922C29.8918 14.8865 28.4459 14.5045 27.0303 14.9073C26.6319 15.0207 26.2171 14.7896 26.1037 14.3912C25.9904 13.9928 26.2214 13.578 26.6198 13.4646C28.558 12.9131 30.5745 13.4396 31.9775 14.8725C32.2673 15.1685 32.2623 15.6433 31.9664 15.9331C31.6704 16.2229 31.1955 16.2179 30.9058 15.922ZM23.1901 15.3084C22.9761 14.9413 22.3522 14.7187 21.7186 15.0809C21.0872 15.4417 20.9762 16.0777 21.1865 16.4384L23.7122 20.7696C23.9208 21.1274 23.7999 21.5866 23.4421 21.7953C23.0843 22.0039 22.625 21.883 22.4164 21.5252L19.8907 17.1941C19.8906 17.1938 19.8909 17.1943 19.8907 17.1941L19.0488 15.7503C18.8348 15.3833 18.211 15.1607 17.5773 15.5228C16.9459 15.8836 16.8349 16.5197 17.0452 16.8804L20.8337 23.377C21.0424 23.7349 20.9215 24.1941 20.5636 24.4027C20.2058 24.6114 19.7466 24.4905 19.5379 24.1327L17.8542 21.2453C17.6401 20.8782 17.0163 20.6556 16.3826 21.0177C15.7513 21.3785 15.6402 22.0146 15.8506 22.3753L19.6391 28.8719C21.248 31.631 25.2184 32.5264 28.5853 30.6021C31.95 28.6792 33.146 24.8377 31.5408 22.085L29.0152 17.7539C28.8011 17.3868 28.1773 17.1642 27.5436 17.5264C26.9123 17.8872 26.8012 18.5232 27.0115 18.8839L28.6953 21.7713C28.7961 21.9441 28.8236 22.15 28.7719 22.3433C28.7201 22.5365 28.5933 22.701 28.4196 22.8003C26.8771 23.6818 26.4044 25.3864 27.0797 26.5444C27.2884 26.9022 27.1674 27.3614 26.8096 27.5701C26.4518 27.7787 25.9926 27.6578 25.7839 27.3C24.7247 25.4836 25.3914 23.2369 27.0473 21.9229L23.1901 15.3084ZM25.9183 17.0092L24.4859 14.5528C23.77 13.3252 22.1628 13.0993 20.9743 13.7786C20.608 13.9879 20.2964 14.2749 20.0615 14.6078C19.2615 13.7269 17.8837 13.62 16.833 14.2205C15.6422 14.9011 15.0299 16.402 15.7495 17.636L16.7516 19.3546C16.3666 19.3964 15.9847 19.5175 15.6383 19.7154C14.4475 20.396 13.8352 21.8969 14.5548 23.1309L18.3433 29.6276C20.454 33.2472 25.4078 34.1458 29.3296 31.9045C33.2538 29.6618 34.9511 24.9554 32.8366 21.3294L30.3109 16.9983C29.5951 15.7707 27.9878 15.5448 26.7993 16.224C26.4493 16.4241 26.1492 16.695 25.9183 17.0092ZM16.4138 29.8591C16.7716 29.6504 17.2308 29.7713 17.4395 30.1291C18.2663 31.5471 19.5304 32.6194 21.0893 33.3151C21.4675 33.4839 21.6373 33.9274 21.4685 34.3057C21.2997 34.6839 20.8562 34.8537 20.478 34.6849C18.6664 33.8764 17.1466 32.6047 16.1437 30.8848C15.935 30.5269 16.0559 30.0677 16.4138 29.8591Z" fill="#111111"/>
</svg>
