<svg width="48" height="48" viewBox="0 0 48 48" fill="none" xmlns="http://www.w3.org/2000/svg">
<rect width="48" height="48" rx="24" fill="#F5F5F5"/>
<path d="M15.9814 21.3333L17.5 16.5H30.5L32.0186 21.3333M30.7222 27.4444C30.236 27.4444 29.7697 27.2513 29.4259 26.9075C29.082 26.5637 28.8889 26.0973 28.8889 25.6111C28.8889 25.1249 29.082 24.6586 29.4259 24.3147C29.7697 23.9709 30.236 23.7778 30.7222 23.7778C31.2085 23.7778 31.6748 23.9709 32.0186 24.3147C32.3624 24.6586 32.5556 25.1249 32.5556 25.6111C32.5556 26.0973 32.3624 26.5637 32.0186 26.9075C31.6748 27.2513 31.2085 27.4444 30.7222 27.4444ZM17.2778 27.4444C16.7915 27.4444 16.3252 27.2513 15.9814 26.9075C15.6376 26.5637 15.4444 26.0973 15.4444 25.6111C15.4444 25.1249 15.6376 24.6586 15.9814 24.3147C16.3252 23.9709 16.7915 23.7778 17.2778 23.7778C17.764 23.7778 18.2303 23.9709 18.5741 24.3147C18.918 24.6586 19.1111 25.1249 19.1111 25.6111C19.1111 26.0973 18.918 26.5637 18.5741 26.9075C18.2303 27.2513 17.764 27.4444 17.2778 27.4444ZM32.4578 15.2222C32.2133 14.5133 31.5289 14 30.7222 14H17.2778C16.4711 14 15.7867 14.5133 15.5422 15.2222L13 22.5556V32.3333C13 32.6575 13.1288 32.9684 13.358 33.1976C13.5872 33.4268 13.8981 33.5556 14.2222 33.5556H15.4444C15.7686 33.5556 16.0795 33.4268 16.3087 33.1976C16.5379 32.9684 16.6667 32.6575 16.6667 32.3333V31.1111H31.3333V32.3333C31.3333 32.6575 31.4621 32.9684 31.6913 33.1976C31.9205 33.4268 32.2314 33.5556 32.5556 33.5556H33.7778C34.1019 33.5556 34.4128 33.4268 34.642 33.1976C34.8712 32.9684 35 32.6575 35 32.3333V22.5556L32.4578 15.2222Z" stroke="black" stroke-width="1.5"/>
</svg>
