<svg width="48" height="48" viewBox="0 0 48 48" fill="none" xmlns="http://www.w3.org/2000/svg">
<rect width="48" height="48" rx="24" fill="#F5F5F5"/>
<path fill-rule="evenodd" clip-rule="evenodd" d="M24 20.25C21.9289 20.25 20.25 21.9289 20.25 24C20.25 26.0711 21.9289 27.75 24 27.75C26.0711 27.75 27.75 26.0711 27.75 24C27.75 21.9289 26.0711 20.25 24 20.25ZM21.75 24C21.75 22.7574 22.7574 21.75 24 21.75C25.2426 21.75 26.25 22.7574 26.25 24C26.25 25.2426 25.2426 26.25 24 26.25C22.7574 26.25 21.75 25.2426 21.75 24Z" fill="#111111"/>
<path fill-rule="evenodd" clip-rule="evenodd" d="M23.9747 13.25C23.5303 13.25 23.1592 13.25 22.8546 13.2708C22.5375 13.2924 22.238 13.339 21.9476 13.4593C21.2738 13.7384 20.7384 14.2738 20.4593 14.9476C20.314 15.2984 20.2747 15.6681 20.2596 16.07C20.2476 16.393 20.0845 16.6625 19.844 16.8014C19.6034 16.9403 19.2884 16.9467 19.0027 16.7957C18.6471 16.6078 18.3073 16.457 17.9308 16.4074C17.2077 16.3122 16.4764 16.5082 15.8978 16.9522C15.6484 17.1435 15.4583 17.3796 15.281 17.6434C15.1107 17.8968 14.9252 18.2181 14.7029 18.6031L14.6777 18.6468C14.4555 19.0317 14.2699 19.353 14.1356 19.6272C13.9958 19.9127 13.8864 20.1954 13.8454 20.507C13.7502 21.2301 13.9462 21.9614 14.3902 22.5401C14.6213 22.8412 14.9217 23.0602 15.2622 23.2741C15.5359 23.4461 15.6879 23.7221 15.6879 24C15.6878 24.2778 15.5359 24.5538 15.2622 24.7258C14.9217 24.9397 14.6212 25.1587 14.3901 25.4599C13.9461 26.0385 13.7501 26.7698 13.8453 27.4929C13.8863 27.8045 13.9957 28.0873 14.1355 28.3727C14.2698 28.6469 14.4553 28.9682 14.6776 29.3531L14.7028 29.3969C14.9251 29.7818 15.1106 30.1031 15.2809 30.3565C15.4582 30.6203 15.6483 30.8564 15.8977 31.0477C16.4763 31.4917 17.2076 31.6877 17.9307 31.5925C18.3072 31.5429 18.647 31.3922 19.0025 31.2043C19.2883 31.0532 19.6033 31.0596 19.8439 31.1986C20.0845 31.3375 20.2476 31.607 20.2596 31.9301C20.2747 32.3319 20.314 32.7016 20.4593 33.0524C20.7384 33.7262 21.2738 34.2616 21.9476 34.5407C22.238 34.661 22.5375 34.7076 22.8546 34.7292C23.1592 34.75 23.5303 34.75 23.9747 34.75H24.0252C24.4697 34.75 24.8407 34.75 25.1454 34.7292C25.4625 34.7076 25.762 34.661 26.0524 34.5407C26.7262 34.2616 27.2616 33.7262 27.5407 33.0524C27.686 32.7016 27.7253 32.3319 27.7403 31.93C27.7524 31.607 27.9154 31.3375 28.156 31.1985C28.3966 31.0596 28.7116 31.0532 28.9974 31.2042C29.3529 31.3921 29.6927 31.5429 30.0692 31.5924C30.7923 31.6876 31.5236 31.4917 32.1022 31.0477C32.3516 30.8563 32.5417 30.6203 32.719 30.3565C32.8893 30.1031 33.0748 29.7818 33.297 29.3969L33.3223 29.3531C33.5445 28.9682 33.7301 28.6468 33.8644 28.3726C34.0042 28.0872 34.1135 27.8045 34.1546 27.4929C34.2498 26.7697 34.0538 26.0384 33.6098 25.4598C33.3787 25.1586 33.0782 24.9397 32.7378 24.7258C32.464 24.5538 32.3121 24.2778 32.3121 23.9999C32.3121 23.7221 32.464 23.4462 32.7377 23.2742C33.0783 23.0603 33.3788 22.8414 33.6099 22.5401C34.0539 21.9615 34.2499 21.2302 34.1547 20.5071C34.1136 20.1955 34.0043 19.9127 33.8645 19.6273C33.7302 19.3531 33.5447 19.0318 33.3224 18.647L33.2972 18.6032C33.0749 18.2183 32.8894 17.8969 32.7191 17.6435C32.5418 17.3797 32.3517 17.1436 32.1023 16.9523C31.5237 16.5083 30.7924 16.3123 30.0692 16.4075C29.6928 16.4571 29.353 16.6078 28.9975 16.7957C28.7117 16.9468 28.3967 16.9404 28.1561 16.8014C27.9155 16.6625 27.7524 16.393 27.7403 16.0699C27.7253 15.6681 27.686 15.2984 27.5407 14.9476C27.2616 14.2738 26.7262 13.7384 26.0524 13.4593C25.762 13.339 25.4625 13.2924 25.1454 13.2708C24.8407 13.25 24.4697 13.25 24.0252 13.25H23.9747ZM22.5216 14.8452C22.5988 14.8132 22.716 14.7837 22.9567 14.7673C23.2042 14.7504 23.5238 14.75 24 14.75C24.4762 14.75 24.7958 14.7504 25.0432 14.7673C25.284 14.7837 25.4012 14.8132 25.4783 14.8452C25.7846 14.972 26.028 15.2154 26.1548 15.5216C26.1949 15.6183 26.228 15.7689 26.2414 16.126C26.271 16.9183 26.68 17.6813 27.4061 18.1005C28.1321 18.5197 28.9974 18.4924 29.6984 18.1219C30.0143 17.9549 30.1614 17.9083 30.265 17.8947C30.5937 17.8514 30.9261 17.9405 31.1891 18.1423C31.2554 18.1931 31.3395 18.2799 31.4741 18.4802C31.6125 18.686 31.7726 18.9626 32.0107 19.375C32.2488 19.7874 32.4083 20.0644 32.5174 20.2871C32.6235 20.5038 32.6566 20.6201 32.6675 20.7029C32.7108 21.0316 32.6217 21.364 32.4199 21.627C32.3562 21.71 32.2424 21.814 31.9397 22.0041C31.2684 22.426 30.8122 23.1616 30.8121 23.9999C30.8121 24.8383 31.2683 25.574 31.9397 25.9959C32.2423 26.186 32.3561 26.29 32.4198 26.373C32.6216 26.636 32.7107 26.9684 32.6674 27.2971C32.6565 27.3799 32.6234 27.4961 32.5173 27.7128C32.4082 27.9355 32.2487 28.2125 32.0106 28.6249C31.7725 29.0373 31.6124 29.3139 31.474 29.5198C31.3394 29.72 31.2553 29.8068 31.189 29.8576C30.926 30.0595 30.5936 30.1485 30.2649 30.1053C30.1613 30.0916 30.0142 30.045 29.6983 29.8781C28.9973 29.5075 28.132 29.4803 27.4059 29.8995C26.68 30.3187 26.271 31.0816 26.2414 31.874C26.228 32.2311 26.1949 32.3817 26.1548 32.4784C26.028 32.7846 25.7846 33.028 25.4783 33.1549C25.4012 33.1868 25.284 33.2163 25.0432 33.2327C24.7958 33.2496 24.4762 33.25 24 33.25C23.5238 33.25 23.2042 33.2496 22.9567 33.2327C22.716 33.2163 22.5988 33.1868 22.5216 33.1549C22.2154 33.028 21.972 32.7846 21.8451 32.4784C21.8051 32.3817 21.7719 32.2311 21.7586 31.874C21.729 31.0817 21.32 30.3187 20.5939 29.8995C19.8678 29.4803 19.0026 29.5076 18.3016 29.8781C17.9856 30.0451 17.8386 30.0917 17.7349 30.1053C17.4063 30.1486 17.0738 30.0595 16.8108 29.8577C16.7446 29.8069 16.6604 29.7201 16.5259 29.5198C16.3875 29.314 16.2274 29.0374 15.9893 28.625C15.7512 28.2126 15.5917 27.9356 15.4826 27.7129C15.3765 27.4962 15.3434 27.3799 15.3325 27.2971C15.2892 26.9684 15.3783 26.636 15.5801 26.373C15.6438 26.2901 15.7576 26.186 16.0602 25.9959C16.7316 25.5741 17.1878 24.8384 17.1879 24.0001C17.1879 23.1616 16.7317 22.4259 16.0602 22.004C15.7577 21.8139 15.6438 21.7099 15.5802 21.6269C15.3784 21.3639 15.2893 21.0315 15.3326 20.7028C15.3435 20.62 15.3766 20.5038 15.4827 20.2871C15.5918 20.0643 15.7513 19.7873 15.9894 19.3749C16.2275 18.9625 16.3876 18.686 16.526 18.4801C16.6605 18.2798 16.7447 18.1931 16.8109 18.1422C17.0739 17.9404 17.4064 17.8513 17.735 17.8946C17.8387 17.9083 17.9858 17.9548 18.3017 18.1218C19.0027 18.4924 19.8679 18.5196 20.5939 18.1005C21.32 17.6813 21.729 16.9184 21.7586 16.126C21.7719 15.7689 21.8051 15.6183 21.8451 15.5216C21.972 15.2154 22.2154 14.972 22.5216 14.8452Z" fill="#111111"/>
</svg>
