<svg width="48" height="48" viewBox="0 0 48 48" fill="none" xmlns="http://www.w3.org/2000/svg">
<rect width="48" height="48" rx="24" fill="#F5F5F5"/>
<path d="M28 34V20C28 17.1716 28 15.7574 27.1213 14.8787C26.2426 14 24.8284 14 22 14H21C18.1716 14 16.7574 14 15.8787 14.8787C15 15.7574 15 17.1716 15 20V34" stroke="#111111" stroke-width="1.5"/>
<path d="M23 18H20C19.0572 18 18.5858 18 18.2929 18.2929C18 18.5858 18 19.0572 18 20C18 20.9428 18 21.4142 18.2929 21.7071C18.5858 22 19.0572 22 20 22H23C23.9428 22 24.4142 22 24.7071 21.7071C25 21.4142 25 20.9428 25 20C25 19.0572 25 18.5858 24.7071 18.2929C24.4142 18 23.9428 18 23 18Z" stroke="#111111" stroke-width="1.5"/>
<path d="M19 29H24" stroke="#111111" stroke-width="1.5" stroke-linecap="round"/>
<path d="M29 34H14" stroke="#111111" stroke-width="1.5" stroke-linecap="round"/>
<path d="M31.5 16L32.7331 16.9865C32.8709 17.0967 32.9398 17.1519 33.0025 17.208C33.5937 17.7381 33.9508 18.4809 33.9953 19.2736C34 19.3577 34 19.4459 34 19.6224V30.5C34 31.3284 33.3284 32 32.5 32C31.6716 32 31 31.3284 31 30.5V30.4286C31 29.6396 30.3604 29 29.5714 29H28" stroke="#111111" stroke-width="1.5" stroke-linecap="round"/>
<path d="M34 20H32.5C31.6716 20 31 20.6716 31 21.5V23.9189C31 24.5645 31.4131 25.1377 32.0257 25.3419L34 26" stroke="#111111" stroke-width="1.5" stroke-linecap="round"/>
</svg>
