<svg width="48" height="48" viewBox="0 0 48 48" fill="none" xmlns="http://www.w3.org/2000/svg">
<rect width="48" height="48" rx="24" fill="#F5F5F5"/>
<path d="M31.5 29.5C31.5 30.0523 31.0523 30.5 30.5 30.5C29.9477 30.5 29.5 30.0523 29.5 29.5C29.5 28.9477 29.9477 28.5 30.5 28.5C31.0523 28.5 31.5 28.9477 31.5 29.5Z" fill="#111111"/>
<path d="M18.5 17.5C18.5 18.0523 18.0523 18.5 17.5 18.5C16.9477 18.5 16.5 18.0523 16.5 17.5C16.5 16.9477 16.9477 16.5 17.5 16.5C18.0523 16.5 18.5 16.9477 18.5 17.5Z" fill="#111111"/>
<path fill-rule="evenodd" clip-rule="evenodd" d="M13.25 17.2573C13.25 14.9943 15.2045 13.25 17.5 13.25C19.7955 13.25 21.75 14.9943 21.75 17.2573C21.75 19.2836 20.5042 21.6751 18.4348 22.5594C17.8402 22.8135 17.1598 22.8135 16.5652 22.5594C14.4958 21.6751 13.25 19.2836 13.25 17.2573ZM17.5 14.75C15.9295 14.75 14.75 15.9224 14.75 17.2573C14.75 18.8008 15.7384 20.5748 17.1547 21.1801C17.3727 21.2733 17.6273 21.2733 17.8453 21.1801C19.2617 20.5748 20.25 18.8008 20.25 17.2573C20.25 15.9224 19.0705 14.75 17.5 14.75ZM23.25 17C23.25 16.5858 23.5858 16.25 24 16.25H28.1319C30.8831 16.25 31.9294 19.843 29.6083 21.3201L19.197 27.9454C18.142 28.6168 18.6176 30.25 19.8681 30.25H22.1893L21.9697 30.0303C21.6768 29.7374 21.6768 29.2626 21.9697 28.9697C22.2626 28.6768 22.7374 28.6768 23.0303 28.9697L24.5303 30.4697C24.8232 30.7626 24.8232 31.2374 24.5303 31.5303L23.0303 33.0303C22.7374 33.3232 22.2626 33.3232 21.9697 33.0303C21.6768 32.7374 21.6768 32.2626 21.9697 31.9697L22.1893 31.75H19.8681C17.1169 31.75 16.0706 28.157 18.3917 26.6799L28.803 20.0546C29.858 19.3832 29.3824 17.75 28.1319 17.75H24C23.5858 17.75 23.25 17.4142 23.25 17ZM26.25 29.2573C26.25 26.9943 28.2045 25.25 30.5 25.25C32.7955 25.25 34.75 26.9943 34.75 29.2573C34.75 31.2836 33.5042 33.6751 31.4348 34.5594C30.8402 34.8135 30.1598 34.8135 29.5652 34.5594C27.4958 33.6751 26.25 31.2836 26.25 29.2573ZM30.5 26.75C28.9295 26.75 27.75 27.9224 27.75 29.2573C27.75 30.8008 28.7384 32.5748 30.1547 33.1801C30.3727 33.2733 30.6273 33.2733 30.8453 33.1801C32.2617 32.5748 33.25 30.8008 33.25 29.2573C33.25 27.9224 32.0705 26.75 30.5 26.75Z" fill="#111111"/>
</svg>
