<svg width="196" height="32" viewBox="0 0 196 32" fill="none" xmlns="http://www.w3.org/2000/svg">
<path fill-rule="evenodd" clip-rule="evenodd" d="M56.5711 17.0489C57.5707 17.4583 58.7013 17.663 59.9631 17.663C61.2576 17.663 62.3801 17.4256 63.3305 16.9506C64.2809 16.4757 65.0019 15.837 65.4935 15.0345C66.0015 14.232 66.2555 13.3394 66.2555 12.3568C66.2555 11.325 66.0015 10.4815 65.4935 9.82645C64.9855 9.17135 64.3792 8.67184 63.6746 8.32791C62.9864 7.98399 62.0851 7.62369 60.9709 7.247C59.8566 6.8867 59.0373 6.55096 58.5129 6.23979C57.9885 5.92862 57.7264 5.49462 57.7264 4.93779C57.7264 4.43009 57.882 4.04522 58.1934 3.78318C58.5047 3.50477 58.9144 3.36556 59.4223 3.36556C60.0123 3.36556 60.4957 3.52933 60.8726 3.85688C61.2494 4.16805 61.4543 4.60205 61.487 5.15889H66.0343C65.9523 3.53752 65.3297 2.27646 64.1662 1.3757C63.0028 0.458568 61.4707 0 59.5698 0C57.7018 0 56.186 0.458568 55.0226 1.3757C53.8591 2.27646 53.2774 3.52933 53.2774 5.13432C53.2774 6.21523 53.5314 7.09142 54.0394 7.76289C54.5474 8.43437 55.1537 8.94207 55.8583 9.28599C56.5629 9.62992 57.4724 9.97384 58.5866 10.3178C59.3568 10.5471 59.9467 10.7518 60.3564 10.9319C60.7824 11.1121 61.1347 11.3414 61.4133 11.6198C61.7083 11.8982 61.8557 12.2503 61.8557 12.6761C61.8557 13.1838 61.6755 13.5851 61.315 13.8799C60.9545 14.1583 60.4629 14.2975 59.8402 14.2975C59.2339 14.2975 58.7423 14.1337 58.3654 13.8062C57.9885 13.4622 57.7673 12.9709 57.7018 12.3322H53.2283C53.261 13.4622 53.5724 14.4285 54.1623 15.231C54.7686 16.0335 55.5715 16.6395 56.5711 17.0489ZM50.6973 17.4911V0.245663H45.7568L40.9638 12.1848L36.1216 0.245663H31.1565V17.4911H35.3596V7.12418L39.2432 17.4911H42.6352L46.4942 7.14874V17.4911H50.6973ZM22.0618 3.61122V7.09961H27.6905V10.3423H22.0618V14.1255H28.4279V17.4911H17.8586V0.245663H28.4279V3.61122H22.0618ZM11.2329 1.32657C9.87283 0.605965 8.28335 0.245663 6.46445 0.245663H0V17.4911H6.46445C8.26696 17.4911 9.84825 17.1308 11.2083 16.4102C12.5848 15.6896 13.6417 14.6742 14.3791 13.364C15.1329 12.0538 15.5098 10.5552 15.5098 8.86837C15.5098 7.16512 15.1329 5.66659 14.3791 4.37277C13.6417 3.06258 12.593 2.04718 11.2329 1.32657ZM9.9056 12.5533C9.02073 13.4213 7.78356 13.8553 6.19407 13.8553H4.20312V3.83231H6.19407C7.78356 3.83231 9.02073 4.27451 9.9056 5.15889C10.7905 6.04327 11.2329 7.27976 11.2329 8.86837C11.2329 10.457 10.7905 11.6853 9.9056 12.5533Z" fill="#111111"/>
<path fill-rule="evenodd" clip-rule="evenodd" d="M10.4584 23.0729C10.5742 23.1887 10.7157 23.2466 10.883 23.2466C11.0439 23.2466 11.179 23.1887 11.2884 23.0729C11.4042 22.9571 11.4621 22.8155 11.4621 22.6482C11.4621 22.4809 11.4042 22.3394 11.2884 22.2236C11.179 22.1078 11.0439 22.0499 10.883 22.0499C10.7157 22.0499 10.5742 22.1078 10.4584 22.2236C10.3426 22.3394 10.2847 22.4809 10.2847 22.6482C10.2847 22.8155 10.3426 22.9571 10.4584 23.0729ZM11.3077 29.3943V24.1055H10.4294V29.3943H11.3077ZM18.2477 23.0729C18.3635 23.1887 18.5051 23.2466 18.6723 23.2466C18.8332 23.2466 18.9683 23.1887 19.0777 23.0729C19.1935 22.9571 19.2514 22.8155 19.2514 22.6482C19.2514 22.4809 19.1935 22.3394 19.0777 22.2236C18.9683 22.1078 18.8332 22.0499 18.6723 22.0499C18.5051 22.0499 18.3635 22.1078 18.2477 22.2236C18.1319 22.3394 18.074 22.4809 18.074 22.6482C18.074 22.8155 18.1319 22.9571 18.2477 23.0729ZM19.097 29.3943V24.1055H18.2187V29.3943H19.097ZM61.5878 23.0729C61.7036 23.1887 61.8451 23.2466 62.0124 23.2466C62.1733 23.2466 62.3084 23.1887 62.4178 23.0729C62.5336 22.9571 62.5915 22.8155 62.5915 22.6482C62.5915 22.4809 62.5336 22.3394 62.4178 22.2236C62.3084 22.1078 62.1733 22.0499 62.0124 22.0499C61.8451 22.0499 61.7036 22.1078 61.5878 22.2236C61.472 22.3394 61.4141 22.4809 61.4141 22.6482C61.4141 22.8155 61.472 22.9571 61.5878 23.0729ZM62.4371 29.3943V24.1055H61.5588V29.3943H62.4371ZM182.735 23.0729C182.85 23.1887 182.992 23.2466 183.159 23.2466C183.32 23.2466 183.455 23.1887 183.564 23.0729C183.68 22.9571 183.738 22.8155 183.738 22.6482C183.738 22.4809 183.68 22.3394 183.564 22.2236C183.455 22.1078 183.32 22.0499 183.159 22.0499C182.992 22.0499 182.85 22.1078 182.735 22.2236C182.619 22.3394 182.561 22.4809 182.561 22.6482C182.561 22.8155 182.619 22.9571 182.735 23.0729ZM183.584 29.3943V24.1055H182.706V29.3943H183.584ZM193.837 24.009C194.481 24.009 195.002 24.2053 195.401 24.5977C195.8 24.9838 196 25.5435 196 26.277V29.3943H195.131V26.4025C195.131 25.8749 194.999 25.4727 194.735 25.1961C194.471 24.913 194.111 24.7714 193.654 24.7714C193.19 24.7714 192.82 24.9162 192.543 25.2057C192.273 25.4953 192.138 25.9167 192.138 26.47V29.3943H191.259V24.1055H192.138V24.8583C192.311 24.5881 192.546 24.379 192.842 24.231C193.145 24.083 193.477 24.009 193.837 24.009ZM187.39 29.4811C186.894 29.4811 186.444 29.3685 186.038 29.1433C185.639 28.9181 185.324 28.5997 185.092 28.1879C184.867 27.7697 184.754 27.2871 184.754 26.7402C184.754 26.1998 184.87 25.7237 185.102 25.3119C185.34 24.8937 185.662 24.5752 186.067 24.3564C186.473 24.1313 186.927 24.0187 187.429 24.0187C187.931 24.0187 188.385 24.1313 188.79 24.3564C189.196 24.5752 189.514 24.8905 189.746 25.3022C189.984 25.714 190.103 26.1933 190.103 26.7402C190.103 27.2871 189.981 27.7697 189.737 28.1879C189.498 28.5997 189.173 28.9181 188.761 29.1433C188.349 29.3685 187.892 29.4811 187.39 29.4811ZM187.39 28.709C187.706 28.709 188.002 28.635 188.278 28.4871C188.555 28.3391 188.777 28.1171 188.945 27.8211C189.119 27.5252 189.205 27.1649 189.205 26.7402C189.205 26.3156 189.122 25.9553 188.954 25.6593C188.787 25.3634 188.568 25.1446 188.298 25.0031C188.027 24.8551 187.734 24.7811 187.419 24.7811C187.097 24.7811 186.801 24.8551 186.531 25.0031C186.267 25.1446 186.054 25.3634 185.893 25.6593C185.732 25.9553 185.652 26.3156 185.652 26.7402C185.652 27.1713 185.729 27.5348 185.884 27.8308C186.045 28.1268 186.257 28.3487 186.521 28.4967C186.785 28.6383 187.075 28.709 187.39 28.709ZM180.26 24.8293V27.9466C180.26 28.204 180.315 28.3873 180.424 28.4967C180.534 28.5997 180.724 28.6511 180.994 28.6511H181.641V29.3943H180.849C180.36 29.3943 179.993 29.2817 179.748 29.0565C179.504 28.8313 179.381 28.4613 179.381 27.9466V24.8293H178.696V24.1055H179.381V22.7737H180.26V24.1055H181.641V24.8293H180.26ZM177.705 29.3943V24.1055H176.826V27.0105C176.826 27.5638 176.691 27.9852 176.42 28.2747C176.15 28.5643 175.78 28.709 175.31 28.709C174.853 28.709 174.492 28.5707 174.228 28.294C173.964 28.011 173.832 27.6088 173.832 27.0877V24.1055H172.963V27.2035C172.963 27.6925 173.057 28.1075 173.243 28.4485C173.437 28.7895 173.697 29.0468 174.026 29.2205C174.354 29.3878 174.724 29.4715 175.136 29.4715C175.497 29.4715 175.825 29.3975 176.121 29.2495C176.424 29.0951 176.659 28.8828 176.826 28.6125V29.3943H177.705ZM171.514 22.2525V29.3943H170.635V22.2525H171.514ZM165.415 29.1433C165.82 29.3685 166.271 29.4811 166.767 29.4811C167.269 29.4811 167.726 29.3685 168.138 29.1433C168.55 28.9181 168.875 28.5997 169.113 28.1879C169.358 27.7697 169.48 27.2871 169.48 26.7402C169.48 26.1933 169.361 25.714 169.123 25.3022C168.891 24.8905 168.572 24.5752 168.167 24.3564C167.761 24.1313 167.307 24.0187 166.805 24.0187C166.303 24.0187 165.849 24.1313 165.444 24.3564C165.038 24.5752 164.716 24.8937 164.478 25.3119C164.246 25.7237 164.13 26.1998 164.13 26.7402C164.13 27.2871 164.243 27.7697 164.468 28.1879C164.7 28.5997 165.016 28.9181 165.415 29.1433ZM167.655 28.4871C167.378 28.635 167.082 28.709 166.767 28.709C166.451 28.709 166.161 28.6383 165.897 28.4967C165.634 28.3487 165.421 28.1268 165.26 27.8308C165.106 27.5348 165.028 27.1713 165.028 26.7402C165.028 26.3156 165.109 25.9553 165.27 25.6593C165.431 25.3634 165.643 25.1446 165.907 25.0031C166.177 24.8551 166.474 24.7811 166.796 24.7811C167.111 24.7811 167.404 24.8551 167.674 25.0031C167.945 25.1446 168.163 25.3634 168.331 25.6593C168.498 25.9553 168.582 26.3156 168.582 26.7402C168.582 27.1649 168.495 27.5252 168.321 27.8211C168.154 28.1171 167.932 28.3391 167.655 28.4871ZM160.926 29.4618C160.481 29.4618 160.082 29.3846 159.728 29.2302C159.381 29.0693 159.107 28.8506 158.907 28.5739C158.708 28.2908 158.605 27.9659 158.598 27.5992H159.535C159.567 27.9144 159.696 28.1815 159.921 28.4002C160.153 28.6125 160.488 28.7187 160.926 28.7187C161.344 28.7187 161.672 28.6157 161.91 28.4099C162.155 28.1975 162.277 27.9273 162.277 27.5992C162.277 27.3418 162.207 27.1327 162.065 26.9719C161.923 26.811 161.746 26.6888 161.534 26.6051C161.321 26.5215 161.035 26.4314 160.674 26.3349C160.23 26.2191 159.873 26.1033 159.603 25.9875C159.339 25.8717 159.11 25.6915 158.917 25.447C158.73 25.1961 158.637 24.8615 158.637 24.4433C158.637 24.0766 158.73 23.7517 158.917 23.4686C159.104 23.1855 159.364 22.9667 159.699 22.8123C160.04 22.6579 160.43 22.5807 160.868 22.5807C161.499 22.5807 162.014 22.7383 162.413 23.0536C162.818 23.3688 163.047 23.787 163.098 24.3082H162.133C162.1 24.0508 161.965 23.8256 161.727 23.6326C161.489 23.4332 161.173 23.3334 160.781 23.3334C160.414 23.3334 160.114 23.43 159.883 23.623C159.651 23.8096 159.535 24.0734 159.535 24.4144C159.535 24.6588 159.603 24.8583 159.738 25.0127C159.879 25.1671 160.05 25.2862 160.25 25.3698C160.456 25.447 160.742 25.5371 161.109 25.64C161.553 25.7623 161.911 25.8845 162.181 26.0068C162.451 26.1226 162.683 26.3059 162.876 26.5569C163.069 26.8014 163.166 27.1359 163.166 27.5606C163.166 27.8887 163.079 28.1975 162.905 28.4871C162.731 28.7766 162.474 29.0114 162.133 29.1916C161.791 29.3717 161.389 29.4618 160.926 29.4618ZM153.772 27.9466V24.8293H155.152V24.1055H153.772V22.7737H152.893V24.1055H152.207V24.8293H152.893V27.9466C152.893 28.4613 153.015 28.8313 153.26 29.0565C153.504 29.2817 153.871 29.3943 154.361 29.3943H155.152V28.6511H154.505C154.235 28.6511 154.045 28.5997 153.936 28.4967C153.826 28.3873 153.772 28.204 153.772 27.9466ZM149.101 24.009C149.745 24.009 150.266 24.2053 150.665 24.5977C151.065 24.9838 151.264 25.5435 151.264 26.277V29.3943H150.395V26.4025C150.395 25.8749 150.263 25.4727 149.999 25.1961C149.735 24.913 149.375 24.7714 148.918 24.7714C148.454 24.7714 148.084 24.9162 147.807 25.2057C147.537 25.4953 147.402 25.9167 147.402 26.47V29.3943H146.523V24.1055H147.402V24.8583C147.575 24.5881 147.81 24.379 148.107 24.231C148.409 24.083 148.741 24.009 149.101 24.009ZM145.334 27.078C145.353 26.8914 145.363 26.7145 145.363 26.5472C145.363 26.0647 145.257 25.6336 145.044 25.254C144.838 24.8679 144.542 24.5656 144.156 24.3468C143.77 24.128 143.326 24.0187 142.823 24.0187C142.308 24.0187 141.851 24.1313 141.452 24.3564C141.06 24.5752 140.754 24.8905 140.535 25.3022C140.316 25.714 140.207 26.1933 140.207 26.7402C140.207 27.2871 140.319 27.7697 140.545 28.1879C140.77 28.5997 141.079 28.9181 141.472 29.1433C141.871 29.3685 142.321 29.4811 142.823 29.4811C143.454 29.4811 143.982 29.3235 144.407 29.0082C144.832 28.6865 145.115 28.2715 145.257 27.7632H144.31C144.207 28.0592 144.027 28.2973 143.77 28.4774C143.519 28.6511 143.203 28.738 142.823 28.738C142.36 28.738 141.964 28.5932 141.636 28.3037C141.314 28.0077 141.137 27.5992 141.105 27.078H145.334ZM144.233 25.5049C144.381 25.743 144.455 26.0293 144.455 26.3638H141.114C141.159 25.862 141.336 25.4695 141.645 25.1864C141.961 24.9033 142.341 24.7618 142.785 24.7618C143.094 24.7618 143.374 24.8261 143.625 24.9548C143.882 25.0771 144.085 25.2604 144.233 25.5049ZM136.95 24.009C137.362 24.009 137.729 24.0959 138.051 24.2696C138.373 24.4369 138.627 24.691 138.814 25.032C139 25.373 139.094 25.788 139.094 26.277V29.3943H138.225V26.4025C138.225 25.8749 138.093 25.4727 137.829 25.1961C137.571 24.913 137.22 24.7714 136.776 24.7714C136.319 24.7714 135.955 24.9194 135.685 25.2154C135.415 25.5049 135.279 25.9263 135.279 26.4797V29.3943H134.41V26.4025C134.41 25.8749 134.278 25.4727 134.014 25.1961C133.757 24.913 133.406 24.7714 132.962 24.7714C132.505 24.7714 132.141 24.9194 131.871 25.2154C131.6 25.5049 131.465 25.9263 131.465 26.4797V29.3943H130.586V24.1055H131.465V24.868C131.639 24.5913 131.871 24.379 132.16 24.231C132.457 24.083 132.782 24.009 133.136 24.009C133.58 24.009 133.973 24.1087 134.314 24.3082C134.655 24.5076 134.909 24.8004 135.077 25.1864C135.225 24.8133 135.469 24.5237 135.81 24.3178C136.152 24.112 136.531 24.009 136.95 24.009ZM129.397 27.078C129.417 26.8914 129.426 26.7145 129.426 26.5472C129.426 26.0647 129.32 25.6336 129.108 25.254C128.902 24.8679 128.605 24.5656 128.219 24.3468C127.833 24.128 127.389 24.0187 126.887 24.0187C126.372 24.0187 125.915 24.1313 125.515 24.3564C125.123 24.5752 124.817 24.8905 124.598 25.3022C124.379 25.714 124.27 26.1933 124.27 26.7402C124.27 27.2871 124.382 27.7697 124.608 28.1879C124.833 28.5997 125.142 28.9181 125.535 29.1433C125.934 29.3685 126.384 29.4811 126.887 29.4811C127.518 29.4811 128.045 29.3235 128.47 29.0082C128.895 28.6865 129.178 28.2715 129.32 27.7632H128.374C128.271 28.0592 128.09 28.2973 127.833 28.4774C127.582 28.6511 127.266 28.738 126.887 28.738C126.423 28.738 126.027 28.5932 125.699 28.3037C125.377 28.0077 125.2 27.5992 125.168 27.078H129.397ZM128.296 25.5049C128.445 25.743 128.519 26.0293 128.519 26.3638H125.177C125.223 25.862 125.4 25.4695 125.709 25.1864C126.024 24.9033 126.404 24.7618 126.848 24.7618C127.157 24.7618 127.437 24.8261 127.688 24.9548C127.946 25.0771 128.148 25.2604 128.296 25.5049ZM120.255 24.0187C120.712 24.0187 121.111 24.1184 121.452 24.3178C121.8 24.5173 122.058 24.7682 122.225 25.0706V24.1055H123.113V29.5101C123.113 29.9926 123.01 30.4205 122.804 30.7936C122.598 31.1733 122.302 31.4692 121.916 31.6815C121.536 31.8939 121.092 32 120.583 32C119.888 32 119.309 31.836 118.845 31.5078C118.382 31.1797 118.108 30.7325 118.024 30.1663H118.893C118.99 30.488 119.19 30.7454 119.492 30.9384C119.795 31.1379 120.158 31.2376 120.583 31.2376C121.066 31.2376 121.459 31.0864 121.761 30.784C122.07 30.4816 122.225 30.057 122.225 29.5101V28.4002C122.051 28.709 121.794 28.9664 121.452 29.1723C121.111 29.3782 120.712 29.4811 120.255 29.4811C119.785 29.4811 119.357 29.3653 118.971 29.1337C118.591 28.9021 118.292 28.5771 118.073 28.1589C117.854 27.7407 117.744 27.2646 117.744 26.7306C117.744 26.1901 117.854 25.7172 118.073 25.3119C118.292 24.9001 118.591 24.5816 118.971 24.3564C119.357 24.1313 119.785 24.0187 120.255 24.0187ZM122.225 26.7402C122.225 26.3413 122.144 25.9939 121.983 25.6979C121.823 25.402 121.604 25.1768 121.327 25.0224C121.056 24.8615 120.757 24.7811 120.429 24.7811C120.101 24.7811 119.801 24.8583 119.531 25.0127C119.26 25.1671 119.045 25.3923 118.884 25.6883C118.723 25.9842 118.642 26.3317 118.642 26.7306C118.642 27.1359 118.723 27.4898 118.884 27.7922C119.045 28.0882 119.26 28.3166 119.531 28.4774C119.801 28.6318 120.101 28.709 120.429 28.709C120.757 28.709 121.056 28.6318 121.327 28.4774C121.604 28.3166 121.823 28.0882 121.983 27.7922C122.144 27.4898 122.225 27.1391 122.225 26.7402ZM111.547 25.3119C111.328 25.7172 111.219 26.1901 111.219 26.7306C111.219 27.2646 111.328 27.7407 111.547 28.1589C111.766 28.5771 112.065 28.9021 112.445 29.1337C112.825 29.3653 113.25 29.4811 113.72 29.4811C114.177 29.4811 114.576 29.3814 114.917 29.1819C115.265 28.976 115.525 28.7187 115.699 28.4099V29.3943H116.588V24.1055H115.699V25.0706C115.532 24.7682 115.278 24.5173 114.936 24.3178C114.595 24.1184 114.193 24.0187 113.729 24.0187C113.259 24.0187 112.831 24.1313 112.445 24.3564C112.065 24.5816 111.766 24.9001 111.547 25.3119ZM115.458 25.6979C115.619 25.9939 115.699 26.3413 115.699 26.7402C115.699 27.1391 115.619 27.4898 115.458 27.7922C115.297 28.0882 115.078 28.3166 114.801 28.4774C114.531 28.6318 114.232 28.709 113.903 28.709C113.575 28.709 113.276 28.6318 113.005 28.4774C112.735 28.3166 112.519 28.0882 112.358 27.7922C112.197 27.4898 112.117 27.1359 112.117 26.7306C112.117 26.3317 112.197 25.9842 112.358 25.6883C112.519 25.3923 112.735 25.1671 113.005 25.0127C113.276 24.8583 113.575 24.7811 113.903 24.7811C114.232 24.7811 114.531 24.8615 114.801 25.0224C115.078 25.1768 115.297 25.402 115.458 25.6979ZM107.949 24.009C108.593 24.009 109.114 24.2053 109.513 24.5977C109.912 24.9838 110.112 25.5435 110.112 26.277V29.3943H109.243V26.4025C109.243 25.8749 109.111 25.4727 108.847 25.1961C108.583 24.913 108.222 24.7714 107.765 24.7714C107.302 24.7714 106.932 24.9162 106.655 25.2057C106.385 25.4953 106.249 25.9167 106.249 26.47V29.3943H105.371V24.1055H106.249V24.8583C106.423 24.5881 106.658 24.379 106.954 24.231C107.257 24.083 107.588 24.009 107.949 24.009ZM98.8449 25.3119C98.626 25.7172 98.5166 26.1901 98.5166 26.7306C98.5166 27.2646 98.626 27.7407 98.8449 28.1589C99.0638 28.5771 99.3631 28.9021 99.743 29.1337C100.123 29.3653 100.548 29.4811 101.018 29.4811C101.475 29.4811 101.874 29.3814 102.215 29.1819C102.563 28.976 102.823 28.7187 102.997 28.4099V29.3943H103.885V24.1055H102.997V25.0706C102.83 24.7682 102.575 24.5173 102.234 24.3178C101.893 24.1184 101.491 24.0187 101.027 24.0187C100.557 24.0187 100.129 24.1313 99.743 24.3564C99.3631 24.5816 99.0638 24.9001 98.8449 25.3119ZM102.756 25.6979C102.917 25.9939 102.997 26.3413 102.997 26.7402C102.997 27.1391 102.917 27.4898 102.756 27.7922C102.595 28.0882 102.376 28.3166 102.099 28.4774C101.829 28.6318 101.529 28.709 101.201 28.709C100.873 28.709 100.573 28.6318 100.303 28.4774C100.033 28.3166 99.817 28.0882 99.6561 27.7922C99.4951 27.4898 99.4146 27.1359 99.4146 26.7306C99.4146 26.3317 99.4951 25.9842 99.6561 25.6883C99.817 25.3923 100.033 25.1671 100.303 25.0127C100.573 24.8583 100.873 24.7811 101.201 24.7811C101.529 24.7811 101.829 24.8615 102.099 25.0224C102.376 25.1768 102.595 25.402 102.756 25.6979ZM97.3546 22.7158V29.3943H96.4759V24.4144L94.2549 29.3943H93.6369L91.4063 24.4047V29.3943H90.5276V22.7158H91.4739L93.9459 28.2361L96.4179 22.7158H97.3546ZM86.7645 27.078C86.7838 26.8914 86.7934 26.7145 86.7934 26.5472C86.7934 26.0647 86.6872 25.6336 86.4748 25.254C86.2688 24.8679 85.9726 24.5656 85.5864 24.3468C85.2001 24.128 84.756 24.0187 84.2538 24.0187C83.7388 24.0187 83.2818 24.1313 82.8826 24.3564C82.4899 24.5752 82.1842 24.8905 81.9653 25.3022C81.7464 25.714 81.637 26.1933 81.637 26.7402C81.637 27.2871 81.7496 27.7697 81.9749 28.1879C82.2002 28.5997 82.5092 28.9181 82.9019 29.1433C83.3011 29.3685 83.7517 29.4811 84.2538 29.4811C84.8847 29.4811 85.4126 29.3235 85.8375 29.0082C86.2623 28.6865 86.5456 28.2715 86.6872 27.7632H85.7409C85.6379 28.0592 85.4576 28.2973 85.2001 28.4774C84.9491 28.6511 84.6336 28.738 84.2538 28.738C83.7903 28.738 83.3944 28.5932 83.0661 28.3037C82.7442 28.0077 82.5672 27.5992 82.535 27.078H86.7645ZM85.6636 25.5049C85.8117 25.743 85.8857 26.0293 85.8857 26.3638H82.5447C82.5897 25.862 82.7667 25.4695 83.0758 25.1864C83.3912 24.9033 83.771 24.7618 84.2152 24.7618C84.5242 24.7618 84.8042 24.8261 85.0553 24.9548C85.3128 25.0771 85.5156 25.2604 85.6636 25.5049ZM75.7715 26.7402C75.7715 26.1933 75.8809 25.7172 76.0998 25.3119C76.3187 24.9001 76.6212 24.5816 77.0075 24.3564C77.4002 24.1313 77.8476 24.0187 78.3497 24.0187C78.9999 24.0187 79.5342 24.1763 79.9527 24.4916C80.3775 24.8068 80.6576 25.2443 80.7928 25.8041H79.8464C79.7563 25.4824 79.5793 25.2283 79.3153 25.0417C79.0578 24.8551 78.736 24.7618 78.3497 24.7618C77.8476 24.7618 77.442 24.9355 77.133 25.2829C76.824 25.6239 76.6695 26.1097 76.6695 26.7402C76.6695 27.3772 76.824 27.8694 77.133 28.2168C77.442 28.5643 77.8476 28.738 78.3497 28.738C78.736 28.738 79.0578 28.6479 79.3153 28.4678C79.5728 28.2876 79.7499 28.0303 79.8464 27.6957H80.7928C80.6511 28.2361 80.3679 28.6704 79.943 28.9986C79.5181 29.3203 78.987 29.4811 78.3497 29.4811C77.8476 29.4811 77.4002 29.3685 77.0075 29.1433C76.6212 28.9181 76.3187 28.5997 76.0998 28.1879C75.8809 27.7761 75.7715 27.2936 75.7715 26.7402ZM74.0659 24.5977C73.6668 24.2053 73.1453 24.009 72.5016 24.009C72.1411 24.009 71.8095 24.083 71.507 24.231C71.2108 24.379 70.9759 24.5881 70.8021 24.8583V24.1055H69.9233V29.3943H70.8021V26.47C70.8021 25.9167 70.9372 25.4953 71.2076 25.2057C71.4844 24.9162 71.8546 24.7714 72.3181 24.7714C72.7752 24.7714 73.1357 24.913 73.3996 25.1961C73.6635 25.4727 73.7955 25.8749 73.7955 26.4025V29.3943H74.6646V26.277C74.6646 25.5435 74.465 24.9838 74.0659 24.5977ZM68.7634 26.5472C68.7634 26.7145 68.7537 26.8914 68.7344 27.078H64.505C64.5372 27.5992 64.7142 28.0077 65.0361 28.3037C65.3644 28.5932 65.7603 28.738 66.2238 28.738C66.6036 28.738 66.919 28.6511 67.1701 28.4774C67.4276 28.2973 67.6079 28.0592 67.7109 27.7632H68.6572C68.5155 28.2715 68.2323 28.6865 67.8074 29.0082C67.3825 29.3235 66.8547 29.4811 66.2238 29.4811C65.7217 29.4811 65.271 29.3685 64.8719 29.1433C64.4792 28.9181 64.1702 28.5997 63.9449 28.1879C63.7196 27.7697 63.6069 27.2871 63.6069 26.7402C63.6069 26.1933 63.7164 25.714 63.9352 25.3022C64.1541 24.8905 64.4599 24.5752 64.8526 24.3564C65.2517 24.1313 65.7088 24.0187 66.2238 24.0187C66.7259 24.0187 67.1701 24.128 67.5564 24.3468C67.9426 24.5656 68.2387 24.8679 68.4447 25.254C68.6572 25.6336 68.7634 26.0647 68.7634 26.5472ZM67.8557 26.3638C67.8557 26.0293 67.7817 25.743 67.6336 25.5049C67.4855 25.2604 67.2828 25.0771 67.0253 24.9548C66.7742 24.8261 66.4942 24.7618 66.1852 24.7618C65.741 24.7618 65.3612 24.9033 65.0457 25.1864C64.7367 25.4695 64.5597 25.862 64.5146 26.3638H67.8557ZM58.8355 24.9645C58.99 24.6621 59.2089 24.4272 59.4921 24.2599C59.7818 24.0927 60.1327 24.009 60.5447 24.009V24.9162H60.3129C59.328 24.9162 58.8355 25.4502 58.8355 26.5183V29.3943H57.9568V24.1055H58.8355V24.9645ZM56.7679 27.078C56.7872 26.8914 56.7968 26.7145 56.7968 26.5472C56.7968 26.0647 56.6906 25.6336 56.4782 25.254C56.2722 24.8679 55.9761 24.5656 55.5898 24.3468C55.2036 24.128 54.7594 24.0187 54.2572 24.0187C53.7422 24.0187 53.2852 24.1313 52.886 24.3564C52.4934 24.5752 52.1876 24.8905 51.9687 25.3022C51.7498 25.714 51.6404 26.1933 51.6404 26.7402C51.6404 27.2871 51.753 27.7697 51.9784 28.1879C52.2037 28.5997 52.5127 28.9181 52.9054 29.1433C53.3045 29.3685 53.7551 29.4811 54.2572 29.4811C54.8881 29.4811 55.416 29.3235 55.8409 29.0082C56.2658 28.6865 56.549 28.2715 56.6906 27.7632H55.7443C55.6413 28.0592 55.4611 28.2973 55.2036 28.4774C54.9525 28.6511 54.6371 28.738 54.2572 28.738C53.7937 28.738 53.3978 28.5932 53.0695 28.3037C52.7476 28.0077 52.5706 27.5992 52.5384 27.078H56.7679ZM55.6671 25.5049C55.8151 25.743 55.8892 26.0293 55.8892 26.3638H52.5481C52.5931 25.862 52.7702 25.4695 53.0792 25.1864C53.3946 24.9033 53.7744 24.7618 54.2186 24.7618C54.5276 24.7618 54.8076 24.8261 55.0587 24.9548C55.3162 25.0771 55.519 25.2604 55.6671 25.5049ZM46.3218 25.0803C46.4957 24.7779 46.7532 24.5269 47.0943 24.3275C47.442 24.1216 47.8443 24.0187 48.3014 24.0187C48.7713 24.0187 49.1962 24.1313 49.576 24.3564C49.9623 24.5816 50.2648 24.9001 50.4837 25.3119C50.7026 25.7172 50.812 26.1901 50.812 26.7306C50.812 27.2646 50.7026 27.7407 50.4837 28.1589C50.2648 28.5771 49.9623 28.9021 49.576 29.1337C49.1962 29.3653 48.7713 29.4811 48.3014 29.4811C47.8507 29.4811 47.4516 29.3814 47.104 29.1819C46.7628 28.976 46.5021 28.7219 46.3218 28.4195V31.9035H45.4431V24.1055H46.3218V25.0803ZM49.914 26.7306C49.914 26.3317 49.8335 25.9842 49.6726 25.6883C49.5116 25.3923 49.2928 25.1671 49.0159 25.0127C48.7456 24.8583 48.4462 24.7811 48.1179 24.7811C47.796 24.7811 47.4967 24.8615 47.2199 25.0224C46.9495 25.1768 46.7306 25.4052 46.5632 25.7076C46.4023 26.0035 46.3218 26.3478 46.3218 26.7402C46.3218 27.1391 46.4023 27.4898 46.5632 27.7922C46.7306 28.0882 46.9495 28.3166 47.2199 28.4774C47.4967 28.6318 47.796 28.709 48.1179 28.709C48.4462 28.709 48.7456 28.6318 49.0159 28.4774C49.2928 28.3166 49.5116 28.0882 49.6726 27.7922C49.8335 27.4898 49.914 27.1359 49.914 26.7306ZM42.3287 27.4255L43.584 29.3943H44.5786L42.8695 26.7209L44.569 24.1055H43.6516L42.4543 26.0647L41.1989 24.1055H40.2043L41.9135 26.7692L40.2043 29.3943H41.1217L42.3287 27.4255ZM36.7503 23.3817V25.6304H39.203V26.3542H36.7503V28.6704H39.4927V29.3943H35.8716V22.6579H39.4927V23.3817H36.7503ZM30.1514 24.3178C29.8102 24.1184 29.4111 24.0187 28.954 24.0187C28.4841 24.0187 28.056 24.1313 27.6697 24.3564C27.2899 24.5816 26.9905 24.9001 26.7717 25.3119C26.5528 25.7172 26.4434 26.1901 26.4434 26.7306C26.4434 27.2646 26.5528 27.7407 26.7717 28.1589C26.9905 28.5771 27.2899 28.9021 27.6697 29.1337C28.056 29.3653 28.4841 29.4811 28.954 29.4811C29.4111 29.4811 29.8102 29.3782 30.1514 29.1723C30.4926 28.9664 30.7501 28.709 30.9239 28.4002V29.5101C30.9239 30.057 30.7694 30.4816 30.4604 30.784C30.1578 31.0864 29.7651 31.2376 29.2823 31.2376C28.8574 31.2376 28.4937 31.1379 28.1912 30.9384C27.8886 30.7454 27.689 30.488 27.5925 30.1663H26.7234C26.8071 30.7325 27.0807 31.1797 27.5442 31.5078C28.0077 31.836 28.5871 32 29.2823 32C29.7909 32 30.2351 31.8939 30.6149 31.6815C31.0011 31.4692 31.2973 31.1733 31.5033 30.7936C31.7093 30.4205 31.8123 29.9926 31.8123 29.5101V24.1055H30.9239V25.0706C30.7565 24.7682 30.499 24.5173 30.1514 24.3178ZM30.6825 25.6979C30.8434 25.9939 30.9239 26.3413 30.9239 26.7402C30.9239 27.1391 30.8434 27.4898 30.6825 27.7922C30.5215 28.0882 30.3027 28.3166 30.0258 28.4774C29.7555 28.6318 29.4561 28.709 29.1278 28.709C28.7995 28.709 28.5002 28.6318 28.2298 28.4774C27.9594 28.3166 27.7437 28.0882 27.5828 27.7922C27.4219 27.4898 27.3414 27.1359 27.3414 26.7306C27.3414 26.3317 27.4219 25.9842 27.5828 25.6883C27.7437 25.3923 27.9594 25.1671 28.2298 25.0127C28.5002 24.8583 28.7995 24.7811 29.1278 24.7811C29.4561 24.7811 29.7555 24.8615 30.0258 25.0224C30.3027 25.1768 30.5215 25.402 30.6825 25.6979ZM23.1732 24.009C23.817 24.009 24.3384 24.2053 24.7375 24.5977C25.1366 24.9838 25.3362 25.5435 25.3362 26.277V29.3943H24.4671V26.4025C24.4671 25.8749 24.3352 25.4727 24.0712 25.1961C23.8073 24.913 23.4468 24.7714 22.9897 24.7714C22.5262 24.7714 22.1561 24.9162 21.8793 25.2057C21.6089 25.4953 21.4737 25.9167 21.4737 26.47V29.3943H20.595V24.1055H21.4737V24.8583C21.6475 24.5881 21.8825 24.379 22.1786 24.231C22.4812 24.083 22.8127 24.009 23.1732 24.009ZM14.7755 28.5836L16.4171 24.1055H17.3538L15.2776 29.3943H14.2541L12.178 24.1055H13.1243L14.7755 28.5836ZM7.70587 24.9645C7.86037 24.6621 8.07925 24.4272 8.3625 24.2599C8.65219 24.0927 9.00303 24.009 9.41504 24.009V24.9162H9.18328C8.19834 24.9162 7.70587 25.4502 7.70587 26.5183V29.3943H6.82715V24.1055H7.70587V24.9645ZM3.99771 23.0825C3.46339 22.8059 2.82929 22.6675 2.09542 22.6675H0V29.3943H2.09542C2.82929 29.3943 3.46339 29.2624 3.99771 28.9986C4.53846 28.7283 4.95046 28.3423 5.23371 27.8405C5.5234 27.3322 5.66825 26.7338 5.66825 26.0454C5.66825 25.3569 5.5234 24.7586 5.23371 24.2503C4.95046 23.742 4.53846 23.3527 3.99771 23.0825ZM4.08461 27.9852C3.62755 28.442 2.96448 28.6704 2.09542 28.6704H0.878723V23.3817H2.09542C2.95805 23.3817 3.61789 23.6165 4.07496 24.0862C4.53846 24.5559 4.77021 25.209 4.77021 26.0454C4.77021 26.8754 4.54168 27.522 4.08461 27.9852Z" fill="#999999"/>
</svg>
