<svg width="24" height="24" viewBox="0 0 24 24" fill="none" xmlns="http://www.w3.org/2000/svg">
<path fill-rule="evenodd" clip-rule="evenodd" d="M3.53263 11.25L13.1893 11.25L10.4697 8.53033L11.5303 7.46967L15.5303 11.4697L16.0607 12L15.5303 12.5303L11.5303 16.5303L10.4697 15.4697L13.1893 12.75L3.53263 12.75C3.91233 17.0931 7.55831 20.5 12 20.5C16.6944 20.5 20.5 16.6944 20.5 12C20.5 7.30558 16.6944 3.5 12 3.5C7.55831 3.5 3.91233 6.90686 3.53263 11.25ZM2 12V12.75H2.0277C2.41123 17.9225 6.72944 22 12 22C17.5228 22 22 17.5228 22 12C22 6.47715 17.5228 2 12 2C6.72944 2 2.41123 6.07745 2.0277 11.25H2V12Z" fill="#00498C"/>
</svg>
