<svg width="16" height="16" viewBox="0 0 16 16" fill="none" xmlns="http://www.w3.org/2000/svg">
<g clip-path="url(#clip0_6_1758)">
<circle cx="8.00016" cy="4.00001" r="2.66667" stroke="#111111" stroke-width="1.5"/>
<path d="M12 5.99999C13.1046 5.99999 14 5.2538 14 4.33332C14 3.41285 13.1046 2.66666 12 2.66666" stroke="#111111" stroke-width="1.5" stroke-linecap="round"/>
<path d="M4 5.99999C2.89543 5.99999 2 5.2538 2 4.33332C2 3.41285 2.89543 2.66666 4 2.66666" stroke="#111111" stroke-width="1.5" stroke-linecap="round"/>
<ellipse cx="8" cy="11.3333" rx="4" ry="2.66667" stroke="#111111" stroke-width="1.5"/>
<path d="M13.3335 12.6667C14.503 12.4102 15.3335 11.7607 15.3335 11C15.3335 10.2393 14.503 9.58981 13.3335 9.33334" stroke="#111111" stroke-width="1.5" stroke-linecap="round"/>
<path d="M2.6665 12.6667C1.49701 12.4102 0.666504 11.7607 0.666504 11C0.666504 10.2393 1.49701 9.58981 2.6665 9.33334" stroke="#111111" stroke-width="1.5" stroke-linecap="round"/>
</g>
<defs>
<clipPath id="clip0_6_1758">
<rect width="16" height="16" fill="white"/>
</clipPath>
</defs>
</svg>
