<svg width="16" height="16" viewBox="0 0 16 16" fill="none" xmlns="http://www.w3.org/2000/svg">
<g clip-path="url(#clip0_6_1752)">
<path d="M2.65436 6.22223L3.66675 3.00001H12.3334L13.3458 6.22223M12.4816 10.2963C12.1574 10.2963 11.8465 10.1675 11.6173 9.93833C11.3881 9.70911 11.2593 9.39824 11.2593 9.07408C11.2593 8.74993 11.3881 8.43905 11.6173 8.20984C11.8465 7.98063 12.1574 7.85186 12.4816 7.85186C12.8057 7.85186 13.1166 7.98063 13.3458 8.20984C13.575 8.43905 13.7038 8.74993 13.7038 9.07408C13.7038 9.39824 13.575 9.70911 13.3458 9.93833C13.1166 10.1675 12.8057 10.2963 12.4816 10.2963ZM3.5186 10.2963C3.19445 10.2963 2.88357 10.1675 2.65436 9.93833C2.42515 9.70911 2.29638 9.39824 2.29638 9.07408C2.29638 8.74993 2.42515 8.43905 2.65436 8.20984C2.88357 7.98063 3.19445 7.85186 3.5186 7.85186C3.84275 7.85186 4.15363 7.98063 4.38284 8.20984C4.61205 8.43905 4.74082 8.74993 4.74082 9.07408C4.74082 9.39824 4.61205 9.70911 4.38284 9.93833C4.15363 10.1675 3.84275 10.2963 3.5186 10.2963ZM13.6386 2.14816C13.4756 1.67557 13.0193 1.33334 12.4816 1.33334H3.5186C2.98082 1.33334 2.52453 1.67557 2.36156 2.14816L0.666748 7.03705V13.5556C0.666748 13.7717 0.752594 13.9789 0.905402 14.1317C1.05821 14.2845 1.26546 14.3704 1.48156 14.3704H2.29638C2.51248 14.3704 2.71973 14.2845 2.87254 14.1317C3.02535 13.9789 3.11119 13.7717 3.11119 13.5556V12.7408H12.889V13.5556C12.889 13.7717 12.9748 13.9789 13.1276 14.1317C13.2804 14.2845 13.4877 14.3704 13.7038 14.3704H14.5186C14.7347 14.3704 14.942 14.2845 15.0948 14.1317C15.2476 13.9789 15.3334 13.7717 15.3334 13.5556V7.03705L13.6386 2.14816Z" stroke="#111111" stroke-width="1.5"/>
</g>
<defs>
<clipPath id="clip0_6_1752">
<rect width="16" height="16" fill="white"/>
</clipPath>
</defs>
</svg>
