<svg width="36" height="36" viewBox="0 0 36 36" fill="none" xmlns="http://www.w3.org/2000/svg">
<g clip-path="url(#clip0_1441_65001)">
<path d="M20.0477 17.19H30.4877V6.74999H25.9877V9.44998C23.7602 7.60498 20.9477 6.54749 18.0002 6.54749C11.1152 6.54749 5.5127 12.15 5.5127 19.0125C5.5127 25.875 11.1152 31.5 18.0002 31.5C24.8852 31.5 30.4877 25.8975 30.4877 19.0125H25.9877C25.9877 23.4225 22.4102 27 18.0002 27C13.5902 27 10.0127 23.4225 10.0127 19.0125C10.0127 14.6025 13.5902 11.0475 18.0002 11.0475C19.7327 11.0475 21.3977 11.655 22.7702 12.69H20.0477V17.19Z" fill="black"/>
</g>
<defs>
<clipPath id="clip0_1441_65001">
<rect width="36" height="36" fill="white"/>
</clipPath>
</defs>
</svg>
