<svg width="16" height="16" viewBox="0 0 16 16" fill="none" xmlns="http://www.w3.org/2000/svg">
<path d="M14.21 12.7917L10.89 9.47172C11.44 8.66172 11.76 7.68172 11.76 6.63172C11.76 3.80172 9.46 1.51172 6.64 1.51172C3.82 1.51172 1.5 3.80172 1.5 6.62172C1.5 9.44172 3.8 11.7417 6.62 11.7417C7.67 11.7417 8.65 11.4217 9.46 10.8717L12.78 14.1917L14.19 12.7817L14.21 12.7917ZM3.5 6.62172C3.5 4.90172 4.9 3.50172 6.62 3.50172C8.34 3.50172 9.74 4.90172 9.74 6.62172C9.74 8.34172 8.34 9.74172 6.62 9.74172C4.9 9.74172 3.5 8.34172 3.5 6.62172Z" fill="black"/>
</svg>
