<svg width="32" height="32" viewBox="0 0 32 32" fill="none" xmlns="http://www.w3.org/2000/svg">
<path d="M26.8757 16.8579C26.6635 16.6207 26.5465 16.3157 26.5465 16C26.5465 15.6843 26.6635 15.3793 26.8757 15.1421L28.5694 13.2704C28.756 13.0659 28.8719 12.8085 28.9005 12.5353C28.929 12.2621 28.8687 11.987 28.7282 11.7496L26.0817 7.25219C25.9427 7.015 25.7309 6.82699 25.4767 6.71495C25.2224 6.60292 24.9387 6.57259 24.6659 6.62827L22.1782 7.12221C21.8617 7.18646 21.5321 7.13467 21.2518 6.97663C20.9714 6.81858 20.7597 6.56521 20.6565 6.26432L19.8493 3.88565C19.7605 3.62748 19.5914 3.40324 19.3658 3.24463C19.1403 3.08602 18.8696 3.00106 18.5922 3.00177H13.2993C13.0108 2.98697 12.7252 3.06536 12.4863 3.22497C12.2473 3.38457 12.0681 3.61661 11.9761 3.88565L11.2351 6.26432C11.1319 6.56521 10.9201 6.81858 10.6398 6.97663C10.3594 7.13467 10.0299 7.18646 9.71335 7.12221L7.15951 6.62827C6.90089 6.59237 6.63723 6.63246 6.40176 6.74349C6.16629 6.85452 5.96953 7.03152 5.83628 7.25219L3.18982 11.7496C3.0458 11.9844 2.98104 12.2579 3.00481 12.5311C3.02857 12.8042 3.13964 13.063 3.32214 13.2704L5.00265 15.1421C5.21479 15.3793 5.33178 15.6843 5.33178 16C5.33178 16.3157 5.21479 16.6207 5.00265 16.8579L3.32214 18.7296C3.13964 18.937 3.02857 19.1958 3.00481 19.4689C2.98104 19.7421 3.0458 20.0156 3.18982 20.2504L5.83628 24.7478C5.97535 24.985 6.1871 25.173 6.44133 25.285C6.69557 25.3971 6.97932 25.4274 7.25214 25.3717L9.73982 24.8778C10.0564 24.8135 10.3859 24.8653 10.6662 25.0234C10.9466 25.1814 11.1583 25.4348 11.2615 25.7357L12.0687 28.1144C12.1608 28.3834 12.34 28.6154 12.5789 28.775C12.8178 28.9346 13.1034 29.013 13.3919 28.9982H18.6849C18.9623 28.9989 19.2329 28.914 19.4585 28.7554C19.684 28.5968 19.8532 28.3725 19.9419 28.1144L20.7491 25.7357C20.8523 25.4348 21.0641 25.1814 21.3444 25.0234C21.6248 24.8653 21.9543 24.8135 22.2708 24.8778L24.7585 25.3717C25.0313 25.4274 25.3151 25.3971 25.5693 25.285C25.8235 25.173 26.0353 24.985 26.1744 24.7478L28.8208 20.2504C28.9613 20.013 29.0216 19.7379 28.9931 19.4647C28.9646 19.1915 28.8487 18.9341 28.662 18.7296L26.8757 16.8579ZM24.9041 18.5996L25.9626 19.7695L24.2689 22.6551L22.7075 22.3431C21.7545 22.1518 20.7631 22.3108 19.9216 22.79C19.08 23.2692 18.4469 24.0353 18.1423 24.9428L17.6395 26.3986H14.252L13.7757 24.9168C13.4711 24.0093 12.838 23.2432 11.9965 22.764C11.1549 22.2848 10.1635 22.1258 9.21052 22.3171L7.64911 22.6291L5.92891 19.7565L6.98749 18.5866C7.63846 17.8717 7.99835 16.9462 7.99835 15.987C7.99835 15.0278 7.63846 14.1023 6.98749 13.3874L5.92891 12.2175L7.62265 9.3579L9.18406 9.66986C10.1371 9.86122 11.1285 9.7022 11.97 9.22298C12.8115 8.74376 13.4447 7.9777 13.7492 7.07021L14.252 5.60141H17.6395L18.1423 7.08321C18.4469 7.9907 19.08 8.75676 19.9216 9.23598C20.7631 9.7152 21.7545 9.87422 22.7075 9.68286L24.2689 9.3709L25.9626 12.2565L24.9041 13.4264C24.2604 14.1396 23.905 15.0598 23.905 16.013C23.905 16.9662 24.2604 17.8864 24.9041 18.5996ZM15.9458 10.8007C14.8989 10.8007 13.8756 11.1056 13.0052 11.6769C12.1348 12.2483 11.4564 13.0603 11.0557 14.0103C10.6551 14.9604 10.5503 16.0058 10.7545 17.0143C10.9588 18.0229 11.4629 18.9493 12.2031 19.6765C12.9433 20.4036 13.8864 20.8988 14.9132 21.0994C15.9399 21.3 17.0041 21.197 17.9713 20.8035C18.9384 20.41 19.7651 19.7436 20.3467 18.8886C20.9283 18.0336 21.2387 17.0283 21.2387 16C21.2387 14.6211 20.6811 13.2986 19.6884 12.3235C18.6958 11.3485 17.3495 10.8007 15.9458 10.8007ZM15.9458 18.5996C15.4224 18.5996 14.9107 18.4472 14.4755 18.1615C14.0403 17.8759 13.7011 17.4699 13.5008 16.9948C13.3005 16.5198 13.248 15.9971 13.3502 15.4928C13.4523 14.9886 13.7043 14.5253 14.0744 14.1618C14.4446 13.7982 14.9161 13.5506 15.4295 13.4503C15.9428 13.35 16.475 13.4015 16.9585 13.5982C17.4421 13.795 17.8554 14.1282 18.1462 14.5557C18.437 14.9832 18.5922 15.4858 18.5922 16C18.5922 16.6895 18.3134 17.3507 17.8171 17.8382C17.3208 18.3258 16.6477 18.5996 15.9458 18.5996Z" fill="black"/>
</svg>
