<svg width="16" height="16" viewBox="0 0 16 16" fill="none" xmlns="http://www.w3.org/2000/svg">
<g clip-path="url(#clip0_6_1729)">
<path d="M1.3335 7.99998C1.3335 4.85728 1.3335 3.28593 2.30981 2.30962C3.28612 1.33331 4.85747 1.33331 8.00016 1.33331C11.1429 1.33331 12.7142 1.33331 13.6905 2.30962C14.6668 3.28593 14.6668 4.85728 14.6668 7.99998" stroke="white" stroke-width="1.5"/>
<path d="M1.3335 9.33333C1.3335 7.46649 1.3335 6.53307 1.69681 5.82003C2.01639 5.19282 2.52632 4.68289 3.15353 4.36331C3.86657 4 4.79999 4 6.66683 4H9.3335C11.2003 4 12.1338 4 12.8468 4.36331C13.474 4.68289 13.9839 5.19282 14.3035 5.82003C14.6668 6.53307 14.6668 7.46649 14.6668 9.33333C14.6668 11.2002 14.6668 12.1336 14.3035 12.8466C13.9839 13.4738 13.474 13.9838 12.8468 14.3034C12.1338 14.6667 11.2003 14.6667 9.3335 14.6667H6.66683C4.79999 14.6667 3.86657 14.6667 3.15353 14.3034C2.52632 13.9838 2.01639 13.4738 1.69681 12.8466C1.3335 12.1336 1.3335 11.2002 1.3335 9.33333Z" stroke="white" stroke-width="1.5"/>
<path d="M8.00016 11.3333L8.00016 7.33331M8.00016 7.33331L9.66683 8.99998M8.00016 7.33331L6.3335 8.99998" stroke="white" stroke-width="1.5" stroke-linecap="round" stroke-linejoin="round"/>
</g>
<defs>
<clipPath id="clip0_6_1729">
<rect width="16" height="16" rx="5" fill="white"/>
</clipPath>
</defs>
</svg>
